<svg id="Layer_1" data-name="Layer 1" xmlns="http://www.w3.org/2000/svg" viewBox="0 0 33.83 34.08"><defs><style>.cls-1{fill:none;stroke:#ffb400;stroke-miterlimit:10;stroke-width:0.86px;}.cls-2{fill:#ffb400;}</style></defs><title>icon-units</title><path class="cls-1" d="M14.45,32.36h-13V8.94h13ZM9,8.52V1.16h13.1V17.9m0,10.47v1.06H14"/><rect class="cls-2" x="12.4" y="4.35" width="2.47" height="2.47"/><rect class="cls-2" x="4.51" y="12.13" width="2.47" height="2.47"/><rect class="cls-2" x="8.8" y="12.13" width="2.47" height="2.47"/><rect class="cls-2" x="4.51" y="16.46" width="2.47" height="2.47"/><rect class="cls-2" x="8.8" y="16.46" width="2.47" height="2.47"/><rect class="cls-2" x="4.51" y="20.6" width="2.47" height="2.47"/><rect class="cls-2" x="8.83" y="20.6" width="2.47" height="2.47"/><rect class="cls-2" x="16.69" y="4.35" width="2.47" height="2.47"/><rect class="cls-2" x="16.69" y="8.66" width="2.47" height="2.47"/><rect class="cls-2" x="16.69" y="12.8" width="2.47" height="2.47"/><rect class="cls-2" x="16.69" y="16.92" width="2.47" height="2.47"/><rect class="cls-2" x="5.61" y="25.31" width="4.37" height="7.24"/><path class="cls-1" d="M24.44,26.8c-3.36.68-5-2-5-4.15.1-3.35,3-3.52,3.59-3,.17-2.07,1.82-3.67,4.88-3s3.3,3.84,2.73,4.61a2.36,2.36,0,0,1,2.08,2.68,2.45,2.45,0,0,1-3,2.12,2.33,2.33,0,0,1-2.94,1.5m-.95-6.19V33.21m0-6.6-2.37-2.5M26,25.66l2.12-2.25"/></svg>