<svg id="Layer_1" data-name="Layer 1" xmlns="http://www.w3.org/2000/svg" viewBox="0 0 66 33.38"><defs><style>.cls-1,.cls-2,.cls-4{fill:none;stroke:#ffb400;}.cls-1,.cls-2{stroke-miterlimit:10;}.cls-2,.cls-4{stroke-linecap:round;}.cls-3{fill:#ffb400;}.cls-4{stroke-linejoin:round;}</style></defs><title>duke-street-shoppong-centre</title><path class="cls-1" d="M59.75,29.67h-21A1.8,1.8,0,0,1,37,28.21L34.25,15.35A1.78,1.78,0,0,1,36,13.23h26.5a1.78,1.78,0,0,1,1.76,2.12L61.51,28.21A1.8,1.8,0,0,1,59.75,29.67Z"/><path class="cls-2" d="M58.85,13.28V29.67M52.46,13.39V29.67M45.85,13.39V29.67M39.57,13.39V29.67m-3.2-4.89H62.1M35.19,18.92H63.55m-6.88-5.74L49.9,5.52m-8.7,7.66L48,5.52"/><polygon class="cls-1" points="1.98 19.55 13.56 31.45 27.19 19.15 27.91 10.52 24.25 6.74 15.14 7.44 1.98 19.55"/><path class="cls-3" d="M23.45,12.8a1.87,1.87,0,1,1-1.85-1.88,1.87,1.87,0,0,1,1.85,1.88"/><path class="cls-4" d="M21.88,12.79c1.88-1.46,6.93-5,8.82-11.27"/></svg>