<svg id="Layer_1" data-name="Layer 1" xmlns="http://www.w3.org/2000/svg" viewBox="0 0 31.94 21.5"><defs><style>.cls-1{fill:none;stroke:#ffb400;stroke-miterlimit:10;stroke-width:0.86px;}</style></defs><title>icon-house</title><path class="cls-1" d="M16.31,8.45,12.66,4.79,5.33,12.12l0,8.07h5.44V14.62h3.82v5.57H20V15.66M1.2,12.91,12.66,1.45,17.71,6.5"/><path class="cls-1" d="M22.5,14.26c-3.35.68-4.94-2-4.94-4.15.1-3.35,3-3.52,3.59-3C21.31,5,23,3.42,26,4.07s3.31,3.84,2.74,4.61a2.36,2.36,0,0,1,2.07,2.68,2.44,2.44,0,0,1-3,2.12A2.33,2.33,0,0,1,24.89,15m-.95-6.2V20.67m0-6.6-2.37-2.5m2.48,1.55,2.13-2.25"/></svg>