<svg id="Layer_1" data-name="Layer 1" xmlns="http://www.w3.org/2000/svg" viewBox="0 0 70.38 43.38"><defs><style>.cls-1,.cls-2{fill:none;stroke:#ffb400;stroke-miterlimit:10;}.cls-1{stroke-linecap:round;}</style></defs><title>sunshine-skills-hub</title><polyline class="cls-1" points="45.1 33.16 11.15 33.16 11.15 9.52 43.58 9.52"/><path class="cls-2" d="M5.19,27.43V33.6M2,22.09c0,3.52.3,5,3.23,5s3.23-1.49,3.23-5S7,13,5.23,13,2,18.57,2,22.09Zm25.39-4H22.87V13.55h4.52Zm8.17,15H22.87V22.11H35.56Zm-16.27-15H14.77V13.55h4.52Zm0,8.55H14.77V22.11h4.52Zm24.22-8.55H39V13.55h4.51Zm0,8.55H39V22.11h4.51Zm-8.09-8.55H30.9V13.55h4.52Z"/><line class="cls-1" x1="12.76" y1="33.17" x2="1.43" y2="33.17"/><path class="cls-2" d="M68.85,34.76l-2.21-9.62a3.47,3.47,0,0,0-6.94,0l-2.21,9.62h3.13l.68,7h3.75l.67-7ZM50.5,21.67A3.47,3.47,0,0,0,47,25.14l1.6,16.58h3.75L54,25.14A3.47,3.47,0,0,0,50.5,21.67Zm16.14-3.48a3.47,3.47,0,1,1-3.47-3.47A3.47,3.47,0,0,1,66.64,18.19ZM47,18.19a3.48,3.48,0,1,1,3.48,3.48A3.47,3.47,0,0,1,47,18.19ZM29.29,22.45V33"/><polyline class="cls-1" points="22.67 9.37 22.67 1.62 63.02 1.62 63.02 11.97"/><path class="cls-2" d="M59.57,9.38H55.05V4.86h4.52Zm-8.1,0H47V4.86h4.52Z"/></svg>