<svg id="Layer_1" data-name="Layer 1" xmlns="http://www.w3.org/2000/svg" viewBox="0 0 70 42.58"><defs><style>.cls-1,.cls-2,.cls-3,.cls-4,.cls-5,.cls-6,.cls-7,.cls-8,.cls-9{fill:none;}.cls-1,.cls-2,.cls-4,.cls-5,.cls-6,.cls-7,.cls-8,.cls-9{stroke:#ffb400;}.cls-1,.cls-2{stroke-linecap:round;}.cls-1{stroke-linejoin:round;}.cls-2,.cls-3,.cls-4,.cls-5,.cls-6,.cls-7,.cls-8,.cls-9{stroke-miterlimit:10;}.cls-3{stroke:#4cc0ad;stroke-width:0.78px;}.cls-4{stroke-dasharray:2.04 2.04;}.cls-5{stroke-dasharray:2.1 2.1;}.cls-7{stroke-dasharray:1.93 1.93;}.cls-8{stroke-dasharray:1.91 1.91;}.cls-9{stroke-dasharray:2.07 2.07;}.cls-10{fill:#ffb400;}</style></defs><title>icon-ring-road</title><path class="cls-1" d="M27,30.64s18.92.45,19.77-12.44c.82-12.31-11-14.34-19.3-17.08,6.59.65,27.86,3.09,28.82,19.21-.1,5-2.81,15.35-18.09,21.16"/><path class="cls-2" d="M26.19,18.29c2,.28,14.11.93,20.6-.09"/><path class="cls-1" d="M55.63,16.35C59.18,15,67.17,7.53,27.67.94c9.1-.28,40.38,2.53,41.4,14.2.18,1.83-.62,9.19-13.79,11.52"/><path class="cls-2" d="M40.92,27.22a69.35,69.35,0,0,1-14.17.21"/><path class="cls-3" d="M33.8,2.52l1,.25"/><path class="cls-4" d="M39.72,4.35c5,2,11.2,6.09,11.41,14.22"/><path class="cls-5" d="M50.29,23.66c-1.6,4.63-5.77,9.86-19.14,12.79"/><path class="cls-6" d="M30.13,36.67l-1,.2m22-17.27c0,.33,0,.67-.07,1s-.13.67-.2,1m-14-18.31,1,.32"/><path class="cls-7" d="M43.69,3c5.64,1.23,16.93,4.46,19.47,9.49"/><path class="cls-8" d="M63.29,17.08c-.64,1.35-2.1,2.85-5.29,3.78"/><path class="cls-6" d="M57.07,21.11l-.94.19m7.38-8a3.86,3.86,0,0,1,.16.95,3.44,3.44,0,0,1,.08,1M40.85,2.42l1,.15"/><path class="cls-9" d="M45.59,22.56a133.28,133.28,0,0,1-18.66-.09"/><path class="cls-6" d="M11.65,24.45H5.15L6.45,21c.16-.5.4-.85,1-.86h8.5c.57,0,.81.36,1,.86l1.3,3.49Zm4.52-6a2.34,2.34,0,0,1,2.35,1.56l1.72,4.45a2.42,2.42,0,0,1,1.89,2.41v5.65H20.46v1.8a1.58,1.58,0,1,1-3.15,0v-1.8H6v1.8a1.58,1.58,0,1,1-3.15,0v-1.8H1.16V26.91A2.42,2.42,0,0,1,3.05,24.5l1.73-4.45a2.33,2.33,0,0,1,2.35-1.56Z"/><path class="cls-10" d="M4.46,29.15a1.5,1.5,0,0,1,0-3,1.5,1.5,0,0,1,0,3"/><path class="cls-10" d="M18.83,29.15a1.5,1.5,0,1,0-1.45-1.5,1.48,1.48,0,0,0,1.45,1.5"/></svg>